<svg xmlns="http://www.w3.org/2000/svg" width="64" height="64" fill="none" viewBox="0 0 64 64"><path fill="url(#paint0_linear_1725:872)" d="M32 62L57.975 46.98V16.964L32 2L6.02602 16.964H6.02502L32 31.984V62Z"/><path fill="url(#paint1_linear_1725:872)" d="M57.975 16.964L32 2L6.02602 16.964H6.02502L32 31.984L57.975 16.964Z"/><path fill="url(#paint2_linear_1725:872)" d="M57.975 16.964L32 2L6.02602 16.964H6.02502L32 31.984L57.975 16.964Z"/><path fill="url(#paint3_linear_1725:872)" d="M57.975 16.964L32 2L6.02602 16.964H6.02502L32 31.984L57.975 16.964Z"/><path fill="url(#paint4_linear_1725:872)" d="M6.026 46.9799V16.9639L32 31.9839L6.026 46.9799Z"/><path fill="url(#paint5_linear_1725:872)" d="M32 31.9844L6.026 46.9804L32 62.0004V31.9844Z" style="mix-blend-mode:overlay"/><path fill="url(#paint6_linear_1725:872)" d="M32 61.9999L57.975 46.9799V16.9639L32 31.9839V61.9999Z"/><path fill="url(#paint7_linear_1725:872)" d="M32 61.9999L57.975 46.9799V16.9639L32 31.9839V61.9999Z"/><path fill="url(#paint8_linear_1725:872)" d="M32 61.9999L57.975 46.9799V16.9639L32 31.9839V61.9999Z"/><g opacity=".8"><path fill="url(#paint9_linear_1725:872)" d="M25.028 27.9699L32 32V2L6 16.972L25.028 27.9699Z" style="mix-blend-mode:overlay"/></g><defs><linearGradient id="paint0_linear_1725:872" x1="17.068" x2="61.396" y1="11.563" y2="55.891" gradientUnits="userSpaceOnUse"><stop offset="0" stop-color="#FDB60D"/><stop offset=".548" stop-color="#FF318C"/><stop offset=".888" stop-color="#6B57FF"/></linearGradient><linearGradient id="paint1_linear_1725:872" x1="25.59" x2="28.451" y1="28.067" y2="23.112" gradientUnits="userSpaceOnUse"><stop offset="0" stop-color="#fff" stop-opacity=".6"/><stop offset=".081" stop-color="#FFC524" stop-opacity=".4"/><stop offset=".705" stop-color="#FFC524" stop-opacity="0"/></linearGradient><linearGradient id="paint2_linear_1725:872" x1="25.433" x2="29.696" y1="5.59" y2="12.974" gradientUnits="userSpaceOnUse"><stop offset="0" stop-color="#F9ED32" stop-opacity=".6"/><stop offset=".198" stop-color="#FFC524" stop-opacity=".4"/><stop offset=".705" stop-color="#FFC524" stop-opacity="0"/></linearGradient><linearGradient id="paint3_linear_1725:872" x1="38.913" x2="37.014" y1="4.991" y2="8.28" gradientUnits="userSpaceOnUse"><stop offset="0" stop-color="#FDB60D" stop-opacity=".6"/><stop offset=".234" stop-color="#FDB60D" stop-opacity=".4"/><stop offset=".518" stop-color="#FF318C" stop-opacity="0"/></linearGradient><linearGradient id="paint4_linear_1725:872" x1="6.026" x2="48.277" y1="31.972" y2="31.972" gradientUnits="userSpaceOnUse"><stop offset=".015"/><stop offset=".193"/><stop offset=".572" stop-color="#6B57FF"/><stop offset=".826" stop-color="#FF318C"/></linearGradient><linearGradient id="paint5_linear_1725:872" x1="25.237" x2="18.774" y1="19.192" y2="55.846" gradientUnits="userSpaceOnUse"><stop offset=".047" stop-color="#fff" stop-opacity=".86"/><stop offset=".767" stop-color="#CBCAA4" stop-opacity="0"/></linearGradient><linearGradient id="paint6_linear_1725:872" x1="32" x2="38.997" y1="39.482" y2="39.482" gradientUnits="userSpaceOnUse"><stop offset="0" stop-color="#FFB2FF" stop-opacity=".6"/><stop offset=".081" stop-color="#D828FF" stop-opacity=".4"/><stop offset=".705" stop-color="#FF318C" stop-opacity="0"/></linearGradient><linearGradient id="paint7_linear_1725:872" x1="58.081" x2="50.935" y1="39.482" y2="39.482" gradientUnits="userSpaceOnUse"><stop offset="0" stop-color="#64F" stop-opacity=".8"/><stop offset=".097" stop-color="#6B57FF" stop-opacity=".4"/><stop offset=".705" stop-color="#FF318C" stop-opacity="0"/></linearGradient><linearGradient id="paint8_linear_1725:872" x1="51.865" x2="49.809" y1="51.395" y2="47.834" gradientUnits="userSpaceOnUse"><stop offset=".006" stop-color="#FF318C"/><stop offset=".469" stop-color="#6B57FF" stop-opacity="0"/></linearGradient><linearGradient id="paint9_linear_1725:872" x1="19" x2="19" y1="2.937" y2="20.561" gradientUnits="userSpaceOnUse"><stop offset=".239" stop-color="#FF5592" stop-opacity=".65"/><stop offset=".829" stop-color="#FF57E4" stop-opacity="0"/></linearGradient></defs></svg>