<svg xmlns="http://www.w3.org/2000/svg" width="92" height="92" fill="none" viewBox="0 0 100 100"><path fill="#5E97F6" stroke="#DCE0DF" stroke-linejoin="round" stroke-width=".204" d="M14.3016 49.404L9.20178 58.2389H19.4013L24.5011 49.404H14.3016Z"/><path fill="#5E97F6" stroke="#DCE0DF" stroke-linejoin="round" stroke-width=".204" d="M4.10199 67.0716L9.20177 58.2388H19.4013L14.3015 67.0716H4.10199Z"/><path fill="#5E97F6" stroke="#DCE0DF" stroke-linejoin="round" stroke-width=".204" d="M29.6009 58.2388H19.4013L14.3015 67.0716H24.5011L29.6009 58.2388Z"/><path fill="#5E97F6" stroke="#DCE0DF" stroke-linejoin="round" stroke-width=".204" d="M39.8004 58.2388H29.6009L24.5011 67.0716H34.7007L39.8004 58.2388Z"/><path fill="#5E97F6" stroke="#DCE0DF" stroke-linejoin="round" stroke-width=".204" d="M34.7007 49.404L29.6009 58.2389H39.8004L44.9002 49.404H34.7007Z"/><path fill="#5E97F6" stroke="#DCE0DF" stroke-linejoin="round" stroke-width=".204" d="M39.8004 40.5712L34.7007 49.404H44.9002L50 40.5712H39.8004Z"/><path fill="#5E97F6" stroke="#DCE0DF" stroke-linejoin="round" stroke-width=".204" d="M44.9002 31.7383L39.8004 40.5712H50L55.0998 31.7383H44.9002Z"/><path fill="#5E97F6" stroke="#DCE0DF" stroke-linejoin="round" stroke-width=".204" d="M50 22.9055L44.9002 31.7383H55.0998L60.1995 22.9055H50Z"/><path fill="#2A56C6" stroke="#DCE0DF" stroke-linejoin="round" stroke-width=".204" d="M4.10199 67.0717L9.20177 75.9045H19.4013L14.3015 67.0717H4.10199Z"/><path fill="#2A56C6" stroke="#DCE0DF" stroke-linejoin="round" stroke-width=".204" d="M29.6009 75.9045H19.4013L14.3015 67.0717H24.5011L29.6009 75.9045Z"/><path fill="#2A56C6" stroke="#DCE0DF" stroke-linejoin="round" stroke-width=".204" d="M39.8004 75.9045H29.6009L24.5011 67.0717H34.7007L39.8004 75.9045Z"/><path fill="#00796B" stroke="#DCE0DF" stroke-linejoin="round" stroke-width=".204" d="M44.9002 67.0716L39.8004 58.2388L34.7007 67.0716L39.8004 75.9045L44.9002 67.0716Z"/><path fill="#00796B" stroke="#DCE0DF" stroke-linejoin="round" stroke-width=".204" d="M55.0998 49.404L50 40.5712L44.9002 49.404H55.0998Z"/><path fill="#00796B" stroke="#DCE0DF" stroke-linejoin="round" stroke-width=".204" d="M55.0998 31.7383L50 40.5712L55.0998 49.404L60.1996 40.5712L55.0998 31.7383Z"/><path fill="#3367D6" stroke="#DCE0DF" stroke-linejoin="round" stroke-width=".204" d="M29.6009 58.2389L24.5011 49.404L19.4013 58.2389H29.6009Z"/><path fill="#26A69A" stroke="#DCE0DF" stroke-linejoin="round" stroke-width=".204" d="M55.0998 49.404H44.9002L39.8004 58.2389H50L55.0998 49.404Z"/><path fill="#26A69A" stroke="#DCE0DF" stroke-linejoin="round" stroke-width=".204" d="M65.2993 49.404H55.0998L50 58.2389H60.1996L65.2993 49.404Z"/><path fill="#9C27B0" stroke="#DCE0DF" stroke-linejoin="round" stroke-width=".204" d="M75.4989 31.7383L70.3991 22.9055L65.2993 31.7383L70.3991 40.5712L75.4989 31.7383Z"/><path fill="#9C27B0" stroke="#DCE0DF" stroke-linejoin="round" stroke-width=".204" d="M80.5987 40.5712L75.4989 31.7383L70.3991 40.5712L75.4989 49.404L80.5987 40.5712Z"/><path fill="#9C27B0" stroke="#DCE0DF" stroke-linejoin="round" stroke-width=".204" d="M85.6985 49.404L80.5987 40.5712L75.4989 49.404L80.5987 58.2388L85.6985 49.404Z"/><path fill="#9C27B0" stroke="#DCE0DF" stroke-linejoin="round" stroke-width=".204" d="M90.7982 58.2388L85.6984 49.404L80.5987 58.2388L85.6984 67.0717L90.7982 58.2388Z"/><path fill="#9C27B0" stroke="#DCE0DF" stroke-linejoin="round" stroke-width=".204" d="M95.898 67.0716L90.7982 58.2388L85.6984 67.0716L90.7982 75.9045L95.898 67.0716Z"/><path fill="#9C27B0" stroke="#DCE0DF" stroke-linejoin="round" stroke-width=".204" d="M90.7982 22.9055L85.6984 31.7383L90.7982 40.5712L95.898 31.7383L90.7982 22.9055Z"/><path fill="#9C27B0" stroke="#DCE0DF" stroke-linejoin="round" stroke-width=".204" d="M80.5987 40.5712L85.6984 31.7383L90.7982 40.5712L85.6984 49.404L80.5987 40.5712Z"/><path fill="#9C27B0" stroke="#DCE0DF" stroke-linejoin="round" stroke-width=".204" d="M75.4989 49.404L70.3991 58.2388L75.4989 67.0717L80.5987 58.2388L75.4989 49.404Z"/><path fill="#9C27B0" stroke="#DCE0DF" stroke-linejoin="round" stroke-width=".204" d="M70.3991 75.9045L65.2993 67.0716L70.3991 58.2388L75.4989 67.0716L70.3991 75.9045Z"/><path fill="#6A1B9A" stroke="#DCE0DF" stroke-linejoin="round" stroke-width=".204" d="M60.1995 75.9045L55.0998 67.0717H65.2993L70.3991 75.9045H60.1995Z"/><path fill="#00695C" stroke="#DCE0DF" stroke-linejoin="round" stroke-width=".204" d="M50 58.2388H39.8004L44.9002 67.0716H55.0998L50 58.2388Z"/><path fill="#00695C" stroke="#DCE0DF" stroke-linejoin="round" stroke-width=".204" d="M60.1996 58.2388H50L55.0998 67.0716L60.1996 58.2388Z"/><path fill="#00695C" stroke="#DCE0DF" stroke-linejoin="round" stroke-width=".204" d="M60.1996 40.5712L65.2993 49.404H75.4989L70.3991 40.5712H60.1996Z"/><path fill="#00695C" stroke="#DCE0DF" stroke-linejoin="round" stroke-width=".204" d="M65.2993 31.7383H55.0998L60.1995 40.5712H70.3991L65.2993 31.7383Z"/><path fill="#00695C" stroke="#DCE0DF" stroke-linejoin="round" stroke-width=".204" d="M90.7982 75.9045L85.6985 67.0717H75.4989L80.5987 75.9045H90.7982Z"/><path fill="#00695C" stroke="#DCE0DF" stroke-linejoin="round" stroke-width=".204" d="M80.5987 58.2388L75.4989 67.0716H85.6985L80.5987 58.2388Z"/><path fill="#EA80FC" stroke="#DCE0DF" stroke-linejoin="round" stroke-width=".204" d="M70.3991 22.9055H60.1995L55.0998 31.7383H65.2993L70.3991 22.9055Z"/><path fill="#EA80FC" stroke="#DCE0DF" stroke-linejoin="round" stroke-width=".204" d="M70.3991 58.2388H60.1995L55.0998 67.0716H65.2993L70.3991 58.2388Z"/><path fill="#EA80FC" stroke="#DCE0DF" stroke-linejoin="round" stroke-width=".204" d="M75.4989 49.404H65.2993L60.1996 58.2389H70.3991L75.4989 49.404Z"/><path fill="#EA80FC" stroke="#DCE0DF" stroke-linejoin="round" stroke-width=".204" d="M90.7982 22.9055H80.5987L75.4989 31.7383H85.6985L90.7982 22.9055Z"/><path fill="#EA80FC" stroke="#DCE0DF" stroke-linejoin="round" stroke-width=".204" d="M80.5987 40.5712L75.4989 31.7383H85.6985L80.5987 40.5712Z"/></svg>