<svg xmlns="http://www.w3.org/2000/svg" width="340" height="310" baseProfile="full" version="1.1"><g stroke="#fff" stroke-width="1.5"><g transform="rotate(30) skewX(30)"><rect width="175" height="75" x="110" y="-72" fill="#333" transform="skewX(-50)"/><rect width="87.5" height="75" x="110" y="3" fill="#CDCDCD" transform="skewX(-50)"/><rect width="87.5" height="25" x="16.5" y="78.9" fill="#CDCDCD"/><rect width="175" height="25" x="16.5" y="104.5" fill="#888"/><rect width="175" height="50" x="16.5" y="130" fill="#DD4814"/><rect width="89.5" height="25" x="104" y="166" fill="#CDCDCD" transform="skewY(-40)"/><rect width="87.5" height="75" x="228.3" y="29.5" fill="#888" transform="skewX(-50)"/><rect width="89.5" height="25" x="191.8" y="266" fill="#888" transform="skewY(-40)"/><rect width="179.5" height="50" x="192" y="291" fill="#DD4814" transform="skewY(-40)"/><rect width="89.1" height="50" x="282.3" y="240" fill="#333" transform="skewY(-40)"/><rect width="87.5" height="25" x="194" y="3.7" fill="#333"/></g><line x1="93" x2="93" y1="57" y2="88"/><line x1="169" x2="92" y1="131" y2="88"/><line x1="92" x2="14" y1="88" y2="128"/></g></svg>