<svg xmlns="http://www.w3.org/2000/svg" width="24" height="24" fill="none" viewBox="0 0 12 12"><g clip-path="url(#clip0_197_2)"><path stroke="#fff" stroke-linecap="round" stroke-linejoin="round" d="M9 2H3C2.44772 2 2 2.44772 2 3V9C2 9.55228 2.44772 10 3 10H9C9.55228 10 10 9.55228 10 9V3C10 2.44772 9.55228 2 9 2Z"/><path stroke="#fff" stroke-linecap="round" stroke-linejoin="round" d="M7.5 4.5H4.5V7.5H7.5V4.5Z"/><path stroke="#fff" stroke-linecap="round" stroke-linejoin="round" d="M4.5 0.5V2"/><path stroke="#fff" stroke-linecap="round" stroke-linejoin="round" d="M7.5 0.5V2"/><path stroke="#fff" stroke-linecap="round" stroke-linejoin="round" d="M4.5 10V11.5"/><path stroke="#fff" stroke-linecap="round" stroke-linejoin="round" d="M7.5 10V11.5"/><path stroke="#fff" stroke-linecap="round" stroke-linejoin="round" d="M10 4.5H11.5"/><path stroke="#fff" stroke-linecap="round" stroke-linejoin="round" d="M10 7H11.5"/><path stroke="#fff" stroke-linecap="round" stroke-linejoin="round" d="M0.5 4.5H2"/><path stroke="#fff" stroke-linecap="round" stroke-linejoin="round" d="M0.5 7H2"/></g><defs><clipPath id="clip0_197_2"><rect width="12" height="12" fill="#fff"/></clipPath></defs></svg>