<svg xmlns="http://www.w3.org/2000/svg" width="121" height="121" fill="none" viewBox="0 0 121 121"><path fill="url(#paint0_linear_1_2)" fill-rule="evenodd" d="M62.8005 6.66987C62.0404 6.23103 61.1782 6 60.3005 6C59.4228 6 58.5606 6.23103 57.8005 6.66987L15.5005 31.0699C14.73 31.5146 14.0922 32.1568 13.6527 32.9302C13.2133 33.7037 12.9881 34.5804 13.0005 35.4699V84.0699C12.9881 84.9594 13.2133 85.8361 13.6527 86.6095C14.0922 87.383 14.73 88.0252 15.5005 88.4699L57.6005 112.77C58.3606 113.209 59.2228 113.44 60.1005 113.44C60.9782 113.44 61.8404 113.209 62.6005 112.77L104.8 88.4699C105.59 88.0381 106.248 87.4015 106.705 86.6272C107.163 85.8528 107.403 84.9693 107.4 84.0699V35.3699C107.403 34.4704 107.163 33.587 106.705 32.8126C106.248 32.0382 105.59 31.4016 104.8 30.9699L62.8005 6.66987Z" clip-rule="evenodd"/><mask id="mask0_1_2" style="mask-type:luminance" width="95" height="108" x="13" y="6" maskUnits="userSpaceOnUse"><path fill="#fff" fill-rule="evenodd" d="M62.8005 6.66987C62.0404 6.23103 61.1782 6 60.3005 6C59.4228 6 58.5606 6.23103 57.8005 6.66987L15.5005 31.0699C14.73 31.5146 14.0922 32.1568 13.6527 32.9302C13.2133 33.7037 12.9881 34.5804 13.0005 35.4699V84.0699C12.9881 84.9594 13.2133 85.8361 13.6527 86.6095C14.0922 87.383 14.73 88.0252 15.5005 88.4699L57.6005 112.77C58.3606 113.209 59.2228 113.44 60.1005 113.44C60.9782 113.44 61.8404 113.209 62.6005 112.77L104.8 88.4699C105.59 88.0381 106.248 87.4015 106.705 86.6272C107.163 85.8528 107.403 84.9693 107.4 84.0699V35.3699C107.403 34.4704 107.163 33.587 106.705 32.8126C106.248 32.0382 105.59 31.4016 104.8 30.9699L62.8005 6.66987Z" clip-rule="evenodd"/></mask><g mask="url(#mask0_1_2)"><path fill="url(#paint1_linear_1_2)" d="M105 31.0699L62.8005 6.66988C62.3926 6.44337 61.955 6.27507 61.5005 6.16988L14.0005 87.2699C14.4025 87.7396 14.8748 88.1444 15.4005 88.4699L57.8005 112.77C58.9849 113.441 60.3851 113.62 61.7005 113.27L106.2 31.8699C105.84 31.5209 105.437 31.2185 105 30.9699V31.0699Z"/><path fill="url(#paint2_linear_1_2)" d="M105 88.4699C105.607 88.127 106.14 87.6679 106.569 87.1188C106.998 86.5697 107.315 85.9414 107.5 85.2699L61.2005 6.06987C59.9674 5.82836 58.6886 6.04149 57.6005 6.66987L15.7005 30.8699L61.0005 113.47C61.6736 113.363 62.3191 113.125 62.9005 112.77L105 88.4699Z"/><path fill="url(#paint3_linear_1_2)" d="M105 88.4699L62.9005 112.77C62.3191 113.125 61.6736 113.363 61.0005 113.47L61.8005 114.97L108.7 87.8699V87.1699L107.5 85.1699C107.327 85.8596 107.016 86.5071 106.586 87.0741C106.157 87.641 105.617 88.1157 105 88.4699Z"/><path fill="url(#paint4_linear_1_2)" d="M105 88.4699L62.9005 112.77C62.3191 113.125 61.6736 113.363 61.0005 113.47L61.8005 114.97L108.7 87.8699V87.1699L107.5 85.1699C107.327 85.8596 107.016 86.5071 106.586 87.0741C106.157 87.641 105.617 88.1157 105 88.4699Z"/></g><defs><linearGradient id="paint0_linear_1_2" x1="77.4" x2="39.3" y1="24.77" y2="102.47" gradientUnits="userSpaceOnUse"><stop stop-color="#3F873F"/><stop offset=".3" stop-color="#3F8B3D"/><stop offset=".6" stop-color="#3E9637"/><stop offset=".9" stop-color="#3DA92E"/><stop offset="1" stop-color="#3DAE2B"/></linearGradient><linearGradient id="paint1_linear_1_2" x1="53.901" x2="160.7" y1="65.37" y2="-13.53" gradientUnits="userSpaceOnUse"><stop offset=".1" stop-color="#3F873F"/><stop offset=".4" stop-color="#529F44"/><stop offset=".7" stop-color="#63B649"/><stop offset=".9" stop-color="#6ABF4B"/></linearGradient><linearGradient id="paint2_linear_1_2" x1="11.601" x2="109" y1="59.77" y2="59.77" gradientUnits="userSpaceOnUse"><stop offset=".1" stop-color="#6ABF4B"/><stop offset=".3" stop-color="#63B649"/><stop offset=".6" stop-color="#529F44"/><stop offset=".9" stop-color="#3F873F"/></linearGradient><linearGradient id="paint3_linear_1_2" x1="11.601" x2="109" y1="100.07" y2="100.07" gradientUnits="userSpaceOnUse"><stop offset=".1" stop-color="#6ABF4B"/><stop offset=".3" stop-color="#63B649"/><stop offset=".6" stop-color="#529F44"/><stop offset=".9" stop-color="#3F873F"/></linearGradient><linearGradient id="paint4_linear_1_2" x1="123.2" x2="63.1" y1="22.47" y2="145.07" gradientUnits="userSpaceOnUse"><stop stop-color="#3F873F"/><stop offset=".3" stop-color="#3F8B3D"/><stop offset=".6" stop-color="#3E9637"/><stop offset=".9" stop-color="#3DA92E"/><stop offset="1" stop-color="#3DAE2B"/></linearGradient></defs></svg>